<svg id="Layer_1" data-name="Layer 1" xmlns="http://www.w3.org/2000/svg" viewBox="0 0 512 512"><defs><style>.cls-1{fill:#141f38;}</style></defs><title>speech-bubble-8-outline</title><path class="cls-1" d="M128,153.31a38.4,38.4,0,1,0,38.4,38.4A38.4,38.4,0,0,0,128,153.31Zm0,51.2a12.8,12.8,0,1,1,12.8-12.8A12.81,12.81,0,0,1,128,204.51Zm89.6-51.2a38.4,38.4,0,1,0,38.4,38.4A38.4,38.4,0,0,0,217.6,153.31Zm0,51.2a12.8,12.8,0,1,1,12.8-12.8A12.81,12.81,0,0,1,217.6,204.51Zm89.6-51.2a38.4,38.4,0,1,0,38.4,38.4A38.4,38.4,0,0,0,307.2,153.31Zm0,51.2a12.8,12.8,0,1,1,12.8-12.8A12.81,12.81,0,0,1,307.2,204.51ZM448,191.71H435.2v-89.6a64,64,0,0,0-64-64H64a64,64,0,0,0-64,64V379.16A17.78,17.78,0,0,0,17.92,397a17.42,17.42,0,0,0,12.45-5.25L76.8,345.31H179.2v12.8a64,64,0,0,0,64,64h192l46.42,46.51a17.42,17.42,0,0,0,12.46,5.26A17.78,17.78,0,0,0,512,456.06V255.71A64,64,0,0,0,448,191.71Zm-381.8,128-7.5,7.5-33.1,33.1V102.11A38.44,38.44,0,0,1,64,63.71H371.2a38.44,38.44,0,0,1,38.4,38.4v179.2a38.44,38.44,0,0,1-38.4,38.4H66.2Zm420.2-13v130.5L453.32,404l-7.5-7.52H243.2a38.44,38.44,0,0,1-38.4-38.4v-12.8H371.2a64,64,0,0,0,64-64v-64H448a38.44,38.44,0,0,1,38.4,38.4Z"/></svg>